<?xml version="1.0" standalone="no"?>
<!DOCTYPE svg PUBLIC "-//W3C//DTD SVG 20010904//EN"
 "http://www.w3.org/TR/2001/REC-SVG-20010904/DTD/svg10.dtd">
<svg version="1.0" xmlns="http://www.w3.org/2000/svg"
 width="2000.000000pt" height="2000.000000pt" viewBox="0 0 2000.000000 2000.000000"
 preserveAspectRatio="xMidYMid meet">

<g transform="translate(0.000000,2000.000000) scale(0.100000,-0.100000)"
fill="#000000" stroke="none">
<path d="M0 10094 c0 -9250 1 -9906 17 -9900 9 4 20 1 24 -5 5 -9 15 -9 37 -1
17 6 49 8 72 6 33 -4 40 -2 34 8 -6 11 -5 11 8 0 10 -8 19 -9 22 -3 4 6 18 6
35 1 25 -7 29 -6 25 8 -5 16 -5 16 8 0 11 -12 18 -14 33 -5 25 13 125 15 125
2 0 -5 4 -4 9 4 5 8 27 15 50 15 23 1 41 3 41 6 0 3 17 6 38 7 62 3 196 12
222 16 14 2 31 -1 38 -6 9 -7 11 -6 6 7 -4 12 -1 16 14 16 12 0 23 -4 27 -10
3 -5 15 -6 28 -1 12 4 28 6 36 3 8 -3 11 0 7 6 -7 12 74 9 95 -3 8 -6 10 -4 4
5 -6 10 -4 12 9 7 10 -4 19 -1 23 8 4 11 9 13 18 5 9 -7 21 -7 40 0 22 8 30 8
37 -2 6 -10 8 -9 8 3 0 13 26 18 50 9 3 -1 10 -1 15 0 6 1 26 3 45 4 20 1 41
5 48 10 7 4 12 2 12 -4 0 -6 5 -8 13 -3 6 4 20 6 30 5 9 -2 17 2 17 9 0 10 3
10 12 1 16 -16 50 -15 67 0 11 10 13 10 7 1 -11 -19 14 -16 37 4 11 10 18 13
14 7 -8 -14 214 -10 239 4 14 8 22 6 32 -6 7 -10 11 -12 8 -6 -4 7 15 11 57
10 44 -1 66 3 74 14 11 13 12 12 13 -5 0 -13 3 -16 8 -8 8 13 98 19 123 9 10
-4 20 -2 24 3 3 6 11 9 16 6 5 -4 9 -3 9 2 0 4 20 9 45 10 31 1 43 -1 39 -9
-5 -7 -2 -8 7 -3 14 9 52 17 83 16 11 0 27 4 37 9 12 7 19 6 22 -3 3 -9 9 -9
27 1 18 11 21 11 14 0 -6 -10 -4 -10 9 1 15 12 17 11 17 -5 0 -11 3 -15 8 -8
11 17 39 23 50 12 6 -6 12 -6 17 3 6 8 4 10 -5 4 -9 -5 -11 -4 -6 4 6 9 11 9
22 0 11 -9 14 -8 14 2 0 10 3 11 8 3 10 -16 86 -11 108 6 14 12 16 12 9 1 -6
-11 -2 -12 21 -6 46 12 158 13 173 1 11 -8 13 -8 7 2 -4 6 -3 12 3 12 5 0 12
-6 14 -12 3 -7 6 -8 6 -2 1 6 14 9 31 6 19 -3 30 0 30 7 0 7 5 9 11 6 5 -4 20
-8 32 -10 12 -1 29 -6 38 -9 10 -4 23 -1 32 9 9 8 18 11 21 6 6 -10 31 -9 41
1 3 3 21 2 40 -2 23 -5 35 -4 38 4 3 8 10 8 25 -1 14 -8 22 -9 24 -2 2 6 26
13 53 15 139 10 146 10 154 -4 7 -12 10 -11 24 2 18 18 43 21 52 6 4 -6 13 -7
23 -2 9 5 27 7 40 6 12 0 25 3 28 8 4 6 10 5 14 -3 7 -10 12 -10 23 0 10 8 17
9 22 1 3 -5 11 -10 16 -10 6 0 7 4 4 10 -4 6 4 6 22 -1 15 -6 29 -10 30 -9 22
12 69 18 80 9 10 -9 13 -8 13 2 0 11 2 11 10 -1 8 -12 10 -12 10 5 0 12 3 16
8 9 11 -17 42 -13 42 5 0 10 3 12 8 5 4 -6 24 -10 45 -9 20 1 37 -1 37 -4 0
-4 9 -7 19 -7 11 0 17 5 14 10 -4 5 3 7 15 4 13 -4 22 -1 22 5 0 9 2 9 8 1 4
-6 16 -9 27 -7 44 9 61 9 74 -1 11 -8 13 -8 8 0 -4 7 2 14 13 17 11 3 18 2 15
-3 -3 -4 2 -10 10 -14 8 -3 15 -2 15 2 0 12 40 9 40 -3 0 -5 6 -3 13 5 12 15
60 23 51 8 -3 -4 -1 -8 5 -8 5 0 12 6 14 13 4 9 8 8 16 -3 7 -10 11 -11 11 -2
0 6 5 12 11 12 5 0 7 -5 3 -11 -5 -8 -1 -8 14 0 25 13 35 14 28 2 -8 -12 18
-8 35 5 16 11 99 11 117 0 7 -4 12 -2 12 3 0 6 7 11 15 11 8 0 15 -4 15 -9 0
-11 51 -2 69 13 11 8 13 8 7 -1 -12 -20 34 -16 51 5 11 12 13 13 10 2 -4 -12
8 -15 64 -16 38 -1 67 1 64 5 -2 4 2 8 10 8 8 0 15 -4 15 -8 0 -5 11 -4 25 1
14 5 25 6 25 2 0 -4 5 0 10 8 6 9 10 11 10 3 0 -7 7 -10 15 -7 8 4 15 1 15 -6
0 -10 3 -10 14 -1 9 7 17 8 20 2 6 -9 19 -9 46 2 32 13 120 24 120 15 0 -5 4
-7 9 -3 5 3 12 1 16 -5 4 -7 13 -6 27 1 15 8 19 8 14 0 -9 -14 0 -14 24 -1 10
6 21 7 23 3 7 -11 160 -9 176 2 21 12 91 12 80 -1 -10 -12 19 -13 39 0 7 4 12
2 12 -5 0 -7 9 -6 25 5 23 15 26 15 32 1 4 -12 8 -13 13 -5 12 19 78 15 92 -5
5 -6 8 -6 8 2 0 12 30 10 52 -3 7 -4 8 -3 4 4 -8 13 14 15 112 15 28 -1 52 3
52 9 0 5 5 6 11 2 17 -10 111 -11 132 -1 11 5 17 4 17 -4 0 -8 4 -8 15 1 8 7
15 9 15 5 0 -4 6 -2 14 4 9 8 16 8 20 2 5 -7 15 -7 31 -1 14 5 25 6 25 2 0 -9
47 -8 56 1 4 3 14 3 23 -2 18 -9 77 -8 87 2 4 4 14 1 22 -6 13 -9 14 -9 8 1
-4 6 -3 12 3 12 5 0 13 -5 16 -10 5 -8 11 -7 21 1 8 7 27 9 50 4 20 -3 34 -3
31 2 -3 4 5 8 18 8 15 0 21 -5 17 -14 -4 -11 -1 -11 16 -2 11 6 28 8 38 4 13
-5 15 -3 9 8 -8 12 -6 12 8 1 11 -9 21 -11 32 -4 10 5 35 6 58 1 25 -4 56 -2
83 6 37 11 44 10 58 -3 13 -13 16 -13 16 -2 0 7 3 10 7 7 3 -4 12 -2 20 5 8 6
13 7 12 2 -4 -23 2 -26 17 -8 15 18 15 18 10 0 -6 -16 -4 -17 9 -6 8 7 15 8
15 2 0 -5 11 -9 24 -8 13 0 22 5 19 10 -3 4 4 5 15 2 48 -16 137 -14 157 3 14
12 17 12 8 1 -10 -13 -4 -15 40 -14 29 1 54 3 57 4 18 7 70 5 70 -3 0 -6 5 -5
12 0 7 6 22 9 33 7 11 -3 35 -6 53 -8 29 -3 31 -2 20 12 -11 13 -8 13 20 -2
17 -9 32 -13 32 -8 0 5 10 9 23 8 12 -1 21 -7 19 -15 -1 -7 2 -10 8 -6 6 3 8
9 6 13 -2 4 6 7 19 7 19 0 21 -3 12 -14 -10 -12 -9 -12 11 -2 13 7 20 17 16
24 -5 9 -4 9 6 0 7 -6 19 -9 28 -6 9 4 13 2 9 -4 -3 -5 0 -10 8 -10 8 0 12 4
9 9 -6 10 57 5 74 -6 7 -4 12 -2 12 5 0 10 3 10 12 1 14 -14 32 -16 24 -3 -4
5 2 7 11 5 35 -7 133 -11 133 -5 0 4 12 6 28 5 15 -1 27 -3 27 -4 0 -1 27 -3
60 -4 44 -2 63 2 73 13 11 14 11 14 6 -2 -5 -15 -3 -16 17 -9 13 5 30 7 37 5
7 -3 19 1 27 7 12 10 18 10 30 0 12 -10 21 -10 40 -2 19 9 25 9 25 -1 0 -7 3
-8 8 -2 4 6 14 10 22 10 8 0 18 -4 22 -10 5 -6 8 -5 8 3 0 7 5 10 11 6 6 -3
15 0 20 7 7 11 9 10 9 -4 0 -10 4 -16 8 -13 7 4 56 7 112 6 8 0 26 1 40 3 14
2 30 0 35 -4 20 -14 155 -19 155 -6 0 9 2 9 8 1 4 -7 21 -12 37 -13 56 -2 75
-5 75 -14 0 -5 7 -1 16 8 12 11 20 13 27 6 15 -15 30 -14 21 2 -4 6 3 3 16 -8
13 -11 20 -14 16 -7 -9 14 29 17 39 3 3 -6 16 -4 32 4 15 8 31 11 37 7 16 -10
40 -8 48 3 5 7 8 7 8 0 0 -16 60 -12 70 5 6 9 10 10 10 3 0 -7 7 -10 17 -6 9
4 14 2 10 -3 -3 -6 3 -11 14 -11 11 -1 17 2 15 6 -5 8 20 7 44 -2 34 -12 60
-15 66 -6 3 5 10 7 15 4 14 -9 89 -13 84 -4 -3 4 -1 10 5 14 5 3 10 2 10 -4 0
-6 16 -9 35 -7 19 1 35 0 35 -4 0 -3 9 -6 20 -7 12 -1 18 3 14 9 -4 6 1 6 14
-1 24 -13 35 -14 28 -3 -8 14 46 6 56 -9 8 -11 9 -11 5 3 -8 22 15 29 30 9 11
-14 12 -14 13 -1 0 13 1 13 10 0 7 -11 12 -12 21 -3 9 9 19 9 44 -2 25 -10 36
-10 44 -2 9 9 14 8 21 -3 8 -13 10 -13 10 0 0 10 3 11 11 3 8 -8 19 -7 40 1
24 9 32 8 40 -4 8 -11 12 -12 16 -2 6 16 33 16 33 0 0 -9 3 -9 8 -2 4 6 19 10
35 9 15 -1 27 2 27 6 0 4 14 3 30 -3 17 -5 37 -7 46 -4 8 3 24 1 34 -4 13 -7
21 -7 26 2 5 7 3 8 -6 3 -9 -5 -11 -4 -6 4 5 7 13 8 19 3 7 -4 28 -8 47 -7 19
0 38 -4 42 -10 5 -6 8 -5 8 4 0 11 3 11 17 0 14 -12 16 -12 8 0 -6 10 -4 12 4
7 18 -12 79 -19 63 -8 -11 7 -10 10 3 15 9 4 14 3 10 -3 -8 -14 21 -24 43 -15
24 10 91 12 85 3 -4 -8 12 -12 31 -9 4 1 14 -4 22 -10 8 -7 14 -7 14 -1 0 5 9
12 21 15 15 4 18 3 9 -7 -10 -14 3 -14 57 -2 13 3 25 1 28 -5 4 -5 11 -9 16
-9 6 0 7 6 3 13 -6 9 -4 9 8 -1 10 -8 19 -9 22 -3 3 5 16 7 28 3 14 -3 19 -1
14 6 -4 6 5 5 21 -3 15 -8 30 -11 33 -7 7 9 69 9 64 0 -8 -13 11 -9 25 4 11
11 12 10 6 0 -6 -11 -3 -12 13 -3 26 14 35 14 26 0 -5 -8 -1 -8 14 0 14 7 23
8 27 1 3 -5 11 -10 16 -10 6 0 8 4 5 8 -3 5 1 9 9 9 8 0 12 -4 9 -9 -3 -4 2
-8 10 -8 9 0 16 4 16 9 0 10 67 8 77 -3 3 -3 12 -1 19 5 8 7 14 7 19 -1 4 -7
12 -7 26 0 10 6 19 7 19 2 0 -5 7 -9 15 -9 8 0 12 4 9 8 -2 4 0 10 6 14 5 3
10 2 10 -3 0 -12 59 -22 66 -11 2 4 14 5 27 2 12 -3 52 -6 89 -6 36 -1 65 -4
63 -7 -4 -7 64 -4 71 3 3 3 16 2 29 -3 14 -5 26 -5 34 3 6 6 11 7 11 1 0 -5
26 -11 58 -12 98 -3 184 -11 189 -16 3 -3 13 -1 22 4 10 5 23 5 31 0 7 -5 21
-3 31 3 13 8 21 7 33 -2 11 -10 16 -10 16 -2 0 8 5 9 17 3 9 -5 28 -6 43 -2
15 4 33 4 40 0 7 -5 21 -3 31 3 14 9 23 7 40 -8 12 -11 19 -14 14 -6 -7 11 0
13 33 8 27 -3 42 -1 42 6 0 6 7 2 16 -9 8 -10 13 -14 10 -8 -3 7 8 10 32 8 20
-2 37 -4 37 -4 0 -1 21 -3 48 -5 30 -2 47 1 47 9 0 6 5 4 10 -4 10 -16 33 -19
66 -8 12 4 25 4 29 0 9 -9 105 -9 105 0 0 4 18 1 40 -7 30 -11 40 -11 40 -2 0
7 7 3 15 -7 8 -11 15 -14 15 -7 0 7 8 11 18 9 9 -1 23 1 29 5 9 6 11 3 6 -10
-5 -15 -3 -16 8 -5 16 14 33 16 24 2 -3 -6 1 -7 9 -4 9 3 13 11 9 18 -4 6 1 5
10 -3 18 -15 140 -24 131 -10 -3 5 6 5 20 -1 14 -5 26 -7 26 -4 0 4 6 1 14 -5
11 -10 17 -8 25 6 6 10 11 13 11 7 0 -6 10 -10 23 -9 12 1 28 -5 35 -14 11
-14 11 -14 6 1 -6 18 15 26 30 11 12 -12 48 -14 40 -2 -5 8 -1 8 14 0 14 -8
23 -8 27 -1 5 8 11 7 20 0 16 -13 67 -10 77 5 5 6 8 5 8 -3 0 -7 4 -10 10 -7
5 3 18 2 28 -4 11 -6 24 -6 35 0 13 8 17 6 17 -8 0 -15 2 -16 10 -3 5 8 10 11
10 7 0 -4 8 -4 17 1 11 7 21 5 31 -4 9 -10 18 -11 26 -5 12 10 122 9 132 -2 4
-4 13 -2 21 4 7 6 13 7 13 2 0 -9 53 -14 188 -17 45 0 82 -3 82 -6 0 -3 42 -6
93 -6 123 0 177 -6 177 -18 0 -7 3 -8 8 -1 11 15 38 17 77 6 20 -5 37 -6 40
-1 3 5 13 6 22 3 12 -5 14 -3 9 8 -4 8 -1 6 7 -3 8 -10 22 -18 31 -18 10 0 15
-5 11 -13 -4 -6 0 -4 7 5 10 11 19 14 29 7 21 -13 41 -11 34 4 -4 6 1 3 9 -7
14 -17 16 -18 16 -3 0 17 11 22 23 10 4 -3 30 -8 59 -10 28 -2 54 -5 56 -8 3
-3 11 0 19 6 10 9 17 8 28 -1 8 -7 15 -9 15 -5 0 4 6 3 13 -4 10 -8 17 -7 26
2 9 9 14 9 21 -3 8 -12 10 -12 10 -1 0 11 3 11 15 1 8 -7 24 -10 35 -7 12 3
18 1 14 -5 -4 -7 2 -7 17 -2 13 4 29 7 34 6 48 -7 104 -7 123 0 17 6 24 4 29
-8 5 -13 8 -13 24 2 11 9 19 12 19 7 0 -6 18 -15 41 -21 35 -9 40 -8 35 5 -6
14 -3 13 18 -1 29 -19 50 -21 40 -4 -5 7 -3 8 7 2 20 -12 40 -14 33 -3 -7 11
-9 11 54 -5 33 -9 52 -10 52 -4 0 6 6 6 14 -2 8 -6 23 -10 33 -8 10 1 24 -1
31 -5 6 -5 12 -4 12 0 0 5 25 9 55 9 30 -1 55 -4 55 -7 0 -4 7 -10 16 -13 9
-3 12 -2 9 4 -4 7 7 8 29 5 20 -3 52 -7 72 -10 20 -3 40 -8 45 -10 4 -3 10 -1
14 5 7 11 33 9 53 -3 7 -5 12 -3 12 5 0 10 2 10 8 1 4 -7 21 -10 40 -8 18 2
31 1 28 -3 -2 -4 16 -7 40 -7 24 0 44 3 44 6 0 3 11 4 25 1 14 -2 23 -8 20
-11 -2 -4 2 -8 10 -8 8 0 15 4 15 9 0 5 5 6 12 2 7 -4 24 -8 38 -9 14 -1 31
-5 38 -9 7 -4 12 -4 12 1 0 4 18 8 40 8 22 1 40 -2 40 -5 0 -4 14 -6 30 -6 17
0 30 4 30 9 0 6 5 6 13 0 6 -5 31 -8 55 -7 27 2 40 -1 36 -8 -4 -6 2 -5 15 2
18 9 26 9 39 -2 13 -11 15 -11 8 2 -4 8 -1 6 8 -4 12 -15 19 -16 29 -8 8 7 17
9 20 5 4 -3 35 -8 69 -10 125 -8 137 -9 143 -14 3 -4 23 -3 45 1 30 6 40 4 40
-6 0 -8 6 -11 15 -8 8 4 12 11 8 17 -4 6 -1 7 7 2 8 -5 34 -10 59 -12 26 -2
55 -5 66 -6 11 -2 35 0 53 4 17 4 34 3 37 -1 3 -5 17 -7 30 -4 15 3 25 0 25
-7 0 -7 3 -9 6 -6 4 3 16 1 27 -4 15 -8 22 -8 28 2 5 8 9 9 9 4 0 -6 9 -11 20
-11 11 0 20 5 20 11 0 5 5 3 10 -5 9 -13 10 -13 10 0 0 13 1 13 10 0 6 -10 10
-11 10 -3 0 9 7 10 26 3 15 -6 43 -10 63 -10 73 1 81 0 81 -11 0 -5 5 -7 12
-3 14 9 108 5 123 -4 14 -9 48 -7 64 3 10 5 12 4 7 -4 -5 -8 9 -11 51 -10 52
2 78 -3 107 -19 5 -3 6 0 2 6 -10 16 7 15 23 0 11 -11 12 -10 6 2 -6 12 -5 13
6 2 17 -16 59 -16 59 1 0 8 3 8 8 1 12 -18 45 -26 54 -12 6 10 8 10 8 1 0 -7
7 -13 16 -13 9 0 12 -5 8 -12 -4 -7 -3 -8 5 -4 9 6 9 12 -1 24 -11 15 -11 15
3 5 9 -7 20 -9 24 -5 5 4 5 1 1 -6 -5 -8 0 -11 16 -8 13 2 29 -2 37 -8 11 -8
13 -8 7 2 -7 11 14 18 39 12 6 -1 17 -3 25 -3 8 0 18 -5 22 -11 5 -7 8 -7 8 2
0 7 5 10 10 7 6 -4 7 -12 3 -18 -5 -9 -3 -9 8 0 12 10 18 10 29 0 10 -9 11 -9
6 1 -4 6 -2 12 3 12 6 0 11 -4 11 -9 0 -5 18 -8 40 -8 22 1 40 6 40 11 0 8 3
7 8 0 4 -6 22 -16 41 -22 43 -15 48 -15 30 0 -8 7 -12 12 -10 11 2 -2 11 3 19
10 13 10 14 9 8 -2 -7 -10 -3 -12 14 -6 12 4 20 3 17 -1 -3 -5 19 -9 49 -8 30
0 54 -3 54 -7 0 -4 12 -6 26 -3 15 3 23 1 20 -5 -7 -11 13 -9 32 2 7 5 12 3
12 -4 0 -9 3 -9 14 0 11 9 15 9 18 -1 4 -10 8 -10 19 -1 10 8 20 9 29 3 20
-13 33 -12 25 0 -3 6 -2 10 3 10 6 0 13 -7 16 -16 5 -14 9 -14 23 -3 14 12 16
12 8 0 -6 -11 -4 -13 7 -8 9 3 21 0 28 -6 10 -9 14 -9 17 0 3 9 10 10 21 4 9
-5 187 -10 395 -10 l377 -2 0 10000 0 10001 -10000 0 -10000 0 0 -9906z m5541
5050 c30 -9 74 -27 99 -41 29 -16 932 -911 2540 -2518 2252 -2250 2500 -2494
2549 -2514 171 -71 338 -41 465 83 93 91 139 232 118 356 -26 143 72 39 -1597
1710 -1447 1450 -1533 1538 -1559 1598 -36 82 -44 176 -22 260 53 207 262 347
465 312 146 -25 -54 167 2805 -2689 1440 -1439 2657 -2661 2705 -2716 318
-368 513 -793 587 -1280 26 -167 26 -533 1 -695 -86 -550 -322 -1023 -698
-1399 -387 -387 -850 -619 -1414 -708 -138 -21 -516 -24 -650 -5 -473 68 -861
230 -1225 510 -105 81 -2403 2372 -2465 2457 -112 155 -158 297 -158 485 -1
217 57 377 196 543 l40 49 -1855 1856 c-1785 1786 -1857 1859 -1879 1917 -19
47 -23 80 -24 155 0 86 3 101 32 162 68 144 201 237 352 246 88 5 167 -13 235
-55 22 -14 948 -931 2056 -2038 1290 -1289 2031 -2022 2060 -2038 125 -70 269
-75 396 -13 198 99 280 328 192 540 -18 45 -316 347 -2413 2446 -2282 2285
-2393 2398 -2421 2460 -26 58 -29 76 -29 165 0 92 3 106 32 167 40 85 106 156
182 197 99 52 202 64 302 35z m4073 -14615 c-3 -5 -10 -7 -15 -3 -5 3 -7 10
-3 15 3 5 10 7 15 3 5 -3 7 -10 3 -15z"/>
<path d="M12155 9183 c-338 -20 -658 -125 -920 -301 -211 -142 -373 -302 -510
-507 -302 -450 -389 -1006 -239 -1527 178 -617 684 -1107 1305 -1262 1083
-271 2142 464 2270 1574 14 128 7 391 -15 509 -96 517 -379 942 -821 1231
-167 109 -411 207 -620 249 -88 18 -345 44 -385 39 -8 -1 -37 -3 -65 -5z m311
-538 c264 -46 488 -161 686 -353 196 -190 316 -409 375 -682 25 -118 25 -390
0 -510 -57 -268 -168 -471 -362 -666 -188 -188 -396 -302 -655 -359 -115 -25
-354 -30 -475 -11 -311 51 -597 214 -794 452 -179 216 -274 447 -302 731 -24
247 39 534 166 758 187 328 532 572 901 639 108 19 349 20 460 1z"/>
</g>
</svg>
